<svg xmlns="http://www.w3.org/2000/svg" viewBox="0 0 640 520" fill="none">
  <rect x="138" y="66" width="364" height="370" rx="28" fill="#111827"/>
  <rect x="162" y="96" width="316" height="310" rx="20" fill="#F7F4EE"/>
  <rect x="190" y="128" width="132" height="18" rx="9" fill="#D7D0C4"/>
  <rect x="190" y="160" width="196" height="14" rx="7" fill="#E8E2D8"/>
  <rect x="190" y="188" width="164" height="14" rx="7" fill="#E8E2D8"/>
  <rect x="190" y="224" width="244" height="72" rx="18" fill="#FFFFFF" stroke="#E8E2D8"/>
  <rect x="214" y="246" width="128" height="12" rx="6" fill="#D7D0C4"/>
  <rect x="214" y="268" width="96" height="12" rx="6" fill="#E8E2D8"/>
  <circle cx="410" cy="260" r="24" fill="#CCFBF1"/>
  <path d="M399 259.5L407.5 268L423 251.5" stroke="#0F766E" stroke-width="6" stroke-linecap="round" stroke-linejoin="round"/>
  <rect x="190" y="316" width="156" height="14" rx="7" fill="#E8E2D8"/>
  <rect x="190" y="346" width="210" height="14" rx="7" fill="#E8E2D8"/>
  <rect x="190" y="374" width="112" height="14" rx="7" fill="#D7D0C4"/>

  <rect x="94" y="136" width="56" height="14" rx="7" fill="#14B8A6" opacity="0.9"/>
  <rect x="92" y="160" width="82" height="14" rx="7" fill="#E8E2D8" opacity="0.9"/>
  <rect x="488" y="136" width="58" height="14" rx="7" fill="#14B8A6" opacity="0.9"/>
  <rect x="462" y="160" width="84" height="14" rx="7" fill="#E8E2D8" opacity="0.9"/>

  <path d="M120 352C145 332 168 334 194 346" stroke="#14B8A6" stroke-width="10" stroke-linecap="round"/>
  <path d="M438 344C456 334 477 330 502 340" stroke="#14B8A6" stroke-width="10" stroke-linecap="round"/>
  <circle cx="108" cy="354" r="12" fill="#CCFBF1" stroke="#14B8A6" stroke-width="4"/>
  <circle cx="516" cy="342" r="12" fill="#CCFBF1" stroke="#14B8A6" stroke-width="4"/>

  <path d="M286 52C286 40.9543 294.954 32 306 32H334C345.046 32 354 40.9543 354 52V84H286V52Z" fill="#111827"/>
  <path d="M302 56C302 49.3726 307.373 44 314 44H326C332.627 44 338 49.3726 338 56V84H302V56Z" fill="#14B8A6"/>
  <path d="M312 66L318 72L330 58" stroke="#F7F4EE" stroke-width="5" stroke-linecap="round" stroke-linejoin="round"/>
</svg>
